<svg width="64" height="65" viewBox="0 0 64 65" fill="none" xmlns="http://www.w3.org/2000/svg">
<rect y="0.272705" width="64" height="64" rx="32" fill="#F4F1F9"/>
<path d="M19.7031 41.2727H16.3281L22.473 23.8182H26.3764L32.5298 41.2727H29.1548L24.4928 27.3977H24.3565L19.7031 41.2727ZM19.8139 34.429H29.0184V36.9687H19.8139V34.429ZM40.4425 41.5113C39.2153 41.5113 38.1243 41.3011 37.1698 40.8807C36.2209 40.4602 35.4709 39.875 34.9198 39.125C34.3687 38.375 34.0761 37.5085 34.042 36.5255H37.2465C37.2749 36.9971 37.4312 37.4091 37.7153 37.7613C37.9993 38.1079 38.3772 38.3778 38.8488 38.571C39.3204 38.7642 39.8488 38.8608 40.434 38.8608C41.059 38.8608 41.613 38.7528 42.0959 38.5369C42.5789 38.3153 42.9567 38.0085 43.2295 37.6165C43.5022 37.2244 43.6357 36.7727 43.63 36.2613C43.6357 35.7329 43.4993 35.267 43.2209 34.8636C42.9425 34.4602 42.5391 34.1449 42.0107 33.9176C41.488 33.6903 40.8573 33.5767 40.1187 33.5767H38.5761V31.1392H40.1187C40.7266 31.1392 41.2579 31.0341 41.7124 30.8238C42.1726 30.6136 42.5334 30.3182 42.7948 29.9375C43.0562 29.5511 43.184 29.1051 43.1783 28.5994C43.184 28.1051 43.0732 27.6761 42.8459 27.3125C42.6243 26.9432 42.309 26.6562 41.8999 26.4517C41.4965 26.2471 41.0221 26.1449 40.4766 26.1449C39.9425 26.1449 39.4482 26.2415 38.9937 26.4346C38.5391 26.6278 38.1726 26.9034 37.8942 27.2613C37.6158 27.6136 37.4681 28.0341 37.4511 28.5227H34.4084C34.4312 27.5454 34.7124 26.6875 35.2522 25.9488C35.7976 25.2045 36.5249 24.625 37.434 24.2102C38.3431 23.7898 39.363 23.5795 40.4937 23.5795C41.6584 23.5795 42.6698 23.7983 43.5278 24.2358C44.3914 24.6676 45.059 25.25 45.5306 25.9829C46.0022 26.7159 46.238 27.5255 46.238 28.4119C46.2437 29.3949 45.9539 30.2187 45.3687 30.8835C44.7891 31.5483 44.0278 31.9829 43.0846 32.1875V32.3238C44.3118 32.4943 45.2522 32.9488 45.9056 33.6875C46.5647 34.4204 46.8914 35.3324 46.8857 36.4233C46.8857 37.4005 46.6073 38.2755 46.0505 39.0483C45.4993 39.8153 44.738 40.4176 43.7664 40.8551C42.8005 41.2926 41.6925 41.5113 40.4425 41.5113Z" fill="#9E77ED"/>
</svg>
