<svg width="97" height="28" viewBox="0 0 97 28" fill="none" xmlns="http://www.w3.org/2000/svg">
<path d="M14.3438 9.63636V27.0909H11.5313L3.30682 15.2017H3.16193V27.0909H0V9.63636H2.82955L11.0455 21.5341H11.1989V9.63636H14.3438Z" fill="#7F56D9"/>
<path d="M25.9964 21.5852V14H29.0817V27.0909H26.0902V24.7642H25.9538C25.6584 25.4972 25.1726 26.0966 24.4964 26.5625C23.826 27.0284 22.9993 27.2614 22.0163 27.2614C21.1584 27.2614 20.3999 27.071 19.7408 26.6903C19.0874 26.304 18.576 25.7443 18.2067 25.0114C17.8374 24.2727 17.6527 23.3807 17.6527 22.3352V14H20.7379V21.858C20.7379 22.6875 20.9652 23.3466 21.4197 23.8352C21.8743 24.3239 22.4709 24.5682 23.2095 24.5682C23.6641 24.5682 24.1044 24.4574 24.5305 24.2358C24.9567 24.0142 25.3061 23.6847 25.5788 23.2472C25.8572 22.804 25.9964 22.25 25.9964 21.5852Z" fill="#7F56D9"/>
<path d="M38.7912 14V16.3864H31.2656V14H38.7912ZM33.1236 10.8636H36.2088V23.1534C36.2088 23.5682 36.2713 23.8864 36.3963 24.108C36.527 24.3239 36.6974 24.4716 36.9077 24.5511C37.1179 24.6307 37.3509 24.6705 37.6065 24.6705C37.7997 24.6705 37.9759 24.6563 38.1349 24.6278C38.2997 24.5994 38.4247 24.5739 38.5099 24.5511L39.0298 26.9631C38.8651 27.0199 38.6293 27.0824 38.3224 27.1506C38.0213 27.2188 37.652 27.2585 37.2145 27.2699C36.4418 27.2926 35.7457 27.1761 35.1264 26.9205C34.5071 26.6591 34.0156 26.2557 33.652 25.7102C33.294 25.1648 33.1179 24.483 33.1236 23.6648V10.8636Z" fill="#7F56D9"/>
<path d="M41.3714 27.0909V14H44.3629V16.1818H44.4993C44.7379 15.4261 45.147 14.8438 45.7266 14.4347C46.3118 14.0199 46.9794 13.8125 47.7294 13.8125C47.8999 13.8125 48.0902 13.821 48.3004 13.8381C48.5163 13.8494 48.6953 13.8693 48.8374 13.8977V16.7358C48.7067 16.6903 48.4993 16.6506 48.2152 16.6165C47.9368 16.5767 47.6669 16.5568 47.4055 16.5568C46.843 16.5568 46.3374 16.679 45.8885 16.9233C45.4453 17.1619 45.0959 17.4943 44.8402 17.9205C44.5845 18.3466 44.4567 18.8381 44.4567 19.3949V27.0909H41.3714Z" fill="#7F56D9"/>
<path d="M50.8871 27.0909V14H53.9723V27.0909H50.8871ZM52.4382 12.142C51.9496 12.142 51.5291 11.9801 51.1768 11.6562C50.8246 11.3267 50.6484 10.9318 50.6484 10.4716C50.6484 10.0057 50.8246 9.6108 51.1768 9.28693C51.5291 8.95739 51.9496 8.79261 52.4382 8.79261C52.9325 8.79261 53.353 8.95739 53.6996 9.28693C54.0518 9.6108 54.228 10.0057 54.228 10.4716C54.228 10.9318 54.0518 11.3267 53.6996 11.6562C53.353 11.9801 52.9325 12.142 52.4382 12.142Z" fill="#7F56D9"/>
<path d="M56.9574 27.0909V25.1222L65.9062 12.2869H56.9062V9.63636H69.8267V11.6051L60.8864 24.4403H69.8778V27.0909H56.9574Z" fill="#7F56D9"/>
<path d="M72.6932 13.0909V11.1307L79.4432 2.66761V2.55682H72.9148V0H83.2188V2.10511L76.7926 10.4233V10.5341H83.4403V13.0909H72.6932Z" fill="#7F56D9"/>
<path d="M86.1697 13.0909V11.1307L92.9197 2.66761V2.55682H86.3913V0H96.6953V2.10511L90.2692 10.4233V10.5341H96.9169V13.0909H86.1697Z" fill="#7F56D9"/>
</svg>
